<svg width="1280" height="720" viewBox="0 0 1280 720" fill="none" xmlns="http://www.w3.org/2000/svg">
  <rect width="1280" height="720" fill="#101820"/>
  <text x="72" y="96" fill="#FFE17C" font-family="Inter, Arial, sans-serif" font-size="44" font-weight="900">CloudOps Hub Architecture</text>
  <text x="72" y="132" fill="#CBD5E1" font-family="Inter, Arial, sans-serif" font-size="18" font-weight="700">React + FastAPI + PostgreSQL + Redis + AWS Boto3 + Terraform</text>
  <defs>
    <filter id="shadow" x="-20%" y="-20%" width="140%" height="140%">
      <feDropShadow dx="8" dy="8" stdDeviation="0" flood-color="#000000" flood-opacity="1"/>
    </filter>
  </defs>
  <g font-family="Inter, Arial, sans-serif" font-weight="900" filter="url(#shadow)">
    <rect x="86" y="228" width="210" height="118" fill="#FFE17C" stroke="#111827" stroke-width="4"/>
    <text x="126" y="278" fill="#111827" font-size="26">React UI</text>
    <text x="126" y="312" fill="#111827" font-size="16">Vite + TypeScript</text>
    <rect x="412" y="228" width="210" height="118" fill="#FFFFFF" stroke="#111827" stroke-width="4"/>
    <text x="450" y="278" fill="#111827" font-size="26">FastAPI</text>
    <text x="450" y="312" fill="#111827" font-size="16">JWT + RBAC APIs</text>
    <rect x="738" y="188" width="210" height="98" fill="#DFF7E9" stroke="#111827" stroke-width="4"/>
    <text x="786" y="242" fill="#111827" font-size="25">PostgreSQL</text>
    <rect x="738" y="332" width="210" height="98" fill="#DBEAFE" stroke="#111827" stroke-width="4"/>
    <text x="812" y="386" fill="#111827" font-size="25">Redis</text>
    <rect x="1040" y="228" width="170" height="118" fill="#FFB86B" stroke="#111827" stroke-width="4"/>
    <text x="1090" y="278" fill="#111827" font-size="26">AWS</text>
    <text x="1075" y="312" fill="#111827" font-size="16">Boto3 services</text>
    <rect x="412" y="496" width="210" height="98" fill="#E0E7FF" stroke="#111827" stroke-width="4"/>
    <text x="462" y="550" fill="#111827" font-size="25">Docker</text>
    <rect x="738" y="496" width="210" height="98" fill="#FDE68A" stroke="#111827" stroke-width="4"/>
    <text x="786" y="550" fill="#111827" font-size="25">Terraform</text>
  </g>
  <g stroke="#FFE17C" stroke-width="6" stroke-linecap="round" stroke-linejoin="round">
    <path d="M306 287H400"/>
    <path d="M632 287H720"/>
    <path d="M632 317C684 317 678 381 724 381"/>
    <path d="M960 287H1028"/>
    <path d="M518 358V480"/>
    <path d="M843 444V480"/>
  </g>
  <g fill="#FFE17C">
    <path d="M398 287L384 276V298L398 287Z"/>
    <path d="M718 287L704 276V298L718 287Z"/>
    <path d="M724 381L708 372L710 394L724 381Z"/>
    <path d="M1028 287L1014 276V298L1028 287Z"/>
    <path d="M518 480L507 466H529L518 480Z"/>
    <path d="M843 480L832 466H854L843 480Z"/>
  </g>
  <text x="72" y="666" fill="#94A3B8" font-family="Inter, Arial, sans-serif" font-size="18" font-weight="700">Built for CodTech IT Solutions</text>
</svg>
